<?xml version="1.0" encoding="utf-8"?>
<!-- Generator: Adobe Illustrator 19.2.1, SVG Export Plug-In . SVG Version: 6.00 Build 0)  -->
<svg version="1.1" id="Layer_1" xmlns="http://www.w3.org/2000/svg" xmlns:xlink="http://www.w3.org/1999/xlink" x="0px" y="0px"
	 viewBox="0 0 160.5 154" style="enable-background:new 0 0 160.5 154;" xml:space="preserve">
<style type="text/css">
	.st0{fill:#333434;}
</style>
<path class="st0" d="M82,94h-1.7v-7.3c-2.3,5.5-5.8,8-10.7,8c-5.3,0-8.8-3.2-8.8-8.5c0-3.8,2.1-9.1,14.2-9.1c1.9,0,3.3,0.1,5.3,0.3
	v-4c0-5.7-3-8.7-8.3-8.7c-3.2,0-6.1,1.4-8.5,4.1l-1.1-1.2c2.4-2.8,5.7-4.6,9.6-4.6c5.8,0,10.1,2.9,10.1,10v21H82z M80.2,79
	c-1.4-0.2-2.7-0.3-5.1-0.3c-9.3,0-12.5,3.1-12.5,7.9c0,3.8,2.7,6.6,7.2,6.6c6,0,10.3-6.8,10.3-12.1L80.2,79L80.2,79z M93.2,78.8
	L93.2,78.8c-1,0-2.1-0.1-3.3-0.2c-2.2-0.2-3.5-0.5-4.8-0.8l-1-0.2l0.3-2.7c0.6-5.8,6-12.4,12.3-11.8c4.7,0.5,7.7,3.7,7.2,8.1
	C103.4,76.4,99.9,78.8,93.2,78.8z M85.8,76.5c1.2,0.3,2.3,0.5,4.3,0.7c1.1,0.1,2.2,0.2,3.1,0.2c7.6,0,8.9-3.3,9.2-6.2
	c0.3-3.5-2-6-5.9-6.4c-5.4-0.5-10.1,5.3-10.6,10.4L85.8,76.5z"/>
</svg>
