<!-- Generator: Adobe Illustrator 19.2.1, SVG Export Plug-In  -->
<svg version="1.1"
	 xmlns="http://www.w3.org/2000/svg" xmlns:xlink="http://www.w3.org/1999/xlink" xmlns:a="http://ns.adobe.com/AdobeSVGViewerExtensions/3.0/"
	 x="0px" y="0px" width="285.899px" height="66.644px" viewBox="0 0 285.899 66.644"
	 style="enable-background:new 0 0 285.899 66.644;" xml:space="preserve">
<style type="text/css">
	.st0{fill:url(#SVGID_1_);}
	.st1{fill:url(#SVGID_2_);}
</style>
<defs>
</defs>
<linearGradient id="SVGID_1_" gradientUnits="userSpaceOnUse" x1="0" y1="33.3221" x2="285.8992" y2="33.3221">
	<stop  offset="0" style="stop-color:#E85B25"/>
	<stop  offset="1" style="stop-color:#E80A89"/>
</linearGradient>
<path class="st0" d="M0,16.567h16.942c7.582,0,11.794,3.651,13.011,8.33c2.247-6.364,7.863-9.453,14.322-9.453
	c11.699,0,14.695,6.926,14.695,16.193v33.884h-2.996V31.637c0-7.208-1.497-13.573-11.699-13.573
	c-8.519,0-13.105,6.553-13.105,14.415v33.042h-3.089V31.075c0-7.675-3.837-11.887-11.606-11.887H2.902v46.333H0V16.567z
	 M102.471,65.522h-2.807V53.633c-3.744,8.894-9.454,13.011-17.41,13.011c-8.612,0-14.228-5.147-14.228-13.759
	c0-6.085,3.462-14.79,23.026-14.79c3.089,0,5.429,0.187,8.518,0.562v-6.458c0-9.267-4.867-14.04-13.478-14.04
	c-5.241,0-9.922,2.247-13.759,6.646l-1.779-1.966c3.837-4.492,9.267-7.393,15.538-7.393c9.36,0,16.38,4.774,16.38,16.193V65.522z
	 M99.57,41.185c-2.34-0.28-4.399-0.562-8.237-0.562c-15.069,0-20.217,4.961-20.217,12.825c0,6.176,4.399,10.67,11.699,10.67
	c9.734,0,16.755-11.044,16.755-19.656V41.185z M116.362,16.567v8.517c4.4-5.522,9.922-9.64,16.569-9.64
	c12.261,0,14.976,8.61,14.976,19.375v30.702h-2.995V34.164c0-10.577-3.371-16.005-12.076-16.005c-7.955,0-13.76,7.113-16.474,10.577
	v36.786h-2.902V16.567H116.362z M160.825,0c1.497,0,2.621,1.217,2.621,2.714s-1.124,2.714-2.621,2.714
	c-1.592,0-2.809-1.217-2.809-2.714S159.233,0,160.825,0z M162.229,65.522h-2.902V16.567h2.902V65.522z M210.286,59.999
	c-5.523,5.148-10.766,6.646-16.942,6.646c-13.105,0-20.78-10.764-20.78-26.022c0-16.848,9.454-25.178,20.686-25.178
	c10.297,0,16.567,6.458,17.41,16.38h-2.807c-1.217-9.36-7.115-13.666-14.695-13.666c-10.859,0-17.504,8.985-17.504,22.464
	c0,11.981,5.991,23.307,17.784,23.307c6.365,0,9.829-1.59,15.257-5.991L210.286,59.999z M250.364,65.522h-2.807V53.633
	c-3.744,8.894-9.454,13.011-17.41,13.011c-8.612,0-14.228-5.147-14.228-13.759c0-6.085,3.462-14.79,23.026-14.79
	c3.089,0,5.429,0.187,8.517,0.562v-6.458c0-9.267-4.867-14.04-13.478-14.04c-5.241,0-9.922,2.247-13.759,6.646l-1.779-1.966
	c3.837-4.492,9.267-7.393,15.538-7.393c9.36,0,16.38,4.774,16.38,16.193V65.522z M247.462,41.185
	c-2.34-0.28-4.399-0.562-8.237-0.562c-15.069,0-20.217,4.961-20.217,12.825c0,6.176,4.399,10.67,11.699,10.67
	c9.734,0,16.755-11.044,16.755-19.656V41.185z M268.459,40.863h-0.002c-1.635,0-3.419-0.091-5.304-0.271
	c-3.627-0.345-5.66-0.79-7.811-1.258l-1.548-0.337l0.415-4.349c0.902-9.452,9.683-20.043,19.884-19.086
	c7.697,0.733,12.416,5.986,11.743,13.07C285.05,36.862,279.365,40.863,268.459,40.863z M256.449,37.059
	c1.876,0.407,3.784,0.786,6.936,1.086c1.808,0.172,3.515,0.26,5.071,0.26c12.389,0,14.487-5.346,14.931-10.004
	c0.542-5.708-3.197-9.786-9.528-10.39c-8.795-0.881-16.407,8.533-17.203,16.871L256.449,37.059z"/>
</svg>