<!-- Generator: Adobe Illustrator 19.2.1, SVG Export Plug-In  -->
<svg version="1.1"
	 xmlns="http://www.w3.org/2000/svg" xmlns:xlink="http://www.w3.org/1999/xlink" xmlns:a="http://ns.adobe.com/AdobeSVGViewerExtensions/3.0/"
	 x="0px" y="0px" width="43.154px" height="31.7px" viewBox="0 0 43.154 31.7" style="enable-background:new 0 0 43.154 31.7;"
	 xml:space="preserve">
<style type="text/css">
	.st0{fill:url(#SVGID_1_);}
	.st1{fill:url(#SVGID_2_);}
</style>
<defs>
</defs>
<linearGradient id="SVGID_1_" gradientUnits="userSpaceOnUse" x1="0" y1="15.85" x2="43.1542" y2="15.85">
	<stop  offset="0" style="stop-color:#EB5E33"/>
	<stop  offset="1" style="stop-color:#EA046B"/>
</linearGradient>
<path class="st0" d="M21.2,31h-1.7v-7.3c-2.3,5.5-5.8,8-10.7,8c-5.3,0-8.8-3.2-8.8-8.5c0-3.8,2.1-9.1,14.2-9.1
	c1.9,0,3.3,0.1,5.3,0.3v-4c0-5.7-3-8.7-8.3-8.7C8,1.7,5.1,3.1,2.7,5.8L1.6,4.6C4,1.8,7.3,0,11.2,0C17,0,21.3,2.9,21.3,10v21H21.2z
	 M19.4,16c-1.4-0.2-2.7-0.3-5.1-0.3c-9.3,0-12.5,3.1-12.5,7.9c0,3.8,2.7,6.6,7.2,6.6c6,0,10.3-6.8,10.3-12.1V16H19.4z M32.4,15.8
	L32.4,15.8c-1,0-2.1-0.1-3.3-0.2c-2.2-0.2-3.5-0.5-4.8-0.8l-1-0.2l0.3-2.7c0.6-5.8,6-12.4,12.3-11.8c4.7,0.5,7.7,3.7,7.2,8.1
	C42.6,13.4,39.1,15.8,32.4,15.8z M25,13.5c1.2,0.3,2.3,0.5,4.3,0.7c1.1,0.1,2.2,0.2,3.1,0.2c7.6,0,8.9-3.3,9.2-6.2
	c0.3-3.5-2-6-5.9-6.4c-5.4-0.5-10.1,5.3-10.6,10.4L25,13.5z"/>
</svg>