<!-- Generator: Adobe Illustrator 19.2.1, SVG Export Plug-In  -->
<svg version="1.1"
	 xmlns="http://www.w3.org/2000/svg" xmlns:xlink="http://www.w3.org/1999/xlink" xmlns:a="http://ns.adobe.com/AdobeSVGViewerExtensions/3.0/"
	 x="0px" y="0px" width="334.8px" height="52.923px" viewBox="0 0 334.8 52.923" style="enable-background:new 0 0 334.8 52.923;"
	 xml:space="preserve">
<style type="text/css">
	.st0{fill:#FFFFFF;}
</style>
<defs>
</defs>
<g>
	<g>
		<path class="st0" d="M15.468,44.152c-2.252,0-4.317-0.425-6.193-1.275c-1.877-0.849-3.507-1.986-4.889-3.407
			c-1.384-1.423-2.46-3.082-3.23-4.979C0.386,32.595,0,30.58,0,28.446v-0.118c0-2.133,0.386-4.147,1.155-6.045
			c0.77-1.896,1.856-3.574,3.26-5.037c1.402-1.461,3.052-2.618,4.949-3.466c1.896-0.85,3.97-1.276,6.223-1.276
			c2.252,0,4.315,0.426,6.192,1.276c1.876,0.849,3.507,1.984,4.89,3.407c1.383,1.423,2.46,3.082,3.231,4.978
			c0.77,1.898,1.155,3.912,1.155,6.045v0.118c0,2.134-0.385,4.149-1.155,6.046c-0.771,1.896-1.857,3.576-3.26,5.038
			c-1.403,1.461-3.052,2.618-4.948,3.466C19.794,43.728,17.721,44.152,15.468,44.152z M15.587,41.367
			c1.786,0,3.443-0.343,4.973-1.032c1.527-0.69,2.838-1.613,3.93-2.773c1.092-1.16,1.945-2.527,2.561-4.1
			c0.615-1.575,0.923-3.246,0.923-5.016v-0.118c0-1.809-0.317-3.51-0.952-5.103c-0.636-1.593-1.519-2.979-2.65-4.16
			c-1.132-1.179-2.462-2.104-3.99-2.774c-1.528-0.668-3.165-1.002-4.912-1.002c-1.787,0-3.444,0.344-4.973,1.032
			c-1.528,0.688-2.839,1.613-3.931,2.774c-1.092,1.16-1.945,2.526-2.561,4.1c-0.615,1.573-0.923,3.245-0.923,5.013v0.118
			c0,1.81,0.318,3.511,0.953,5.103c0.636,1.594,1.517,2.981,2.649,4.16c1.132,1.181,2.462,2.105,3.99,2.773
			S13.84,41.367,15.587,41.367z"/>
		<path class="st0" d="M40.03,15.882h-4.386v-2.667h4.386v-2.962c0-3.476,0.889-6.105,2.667-7.882C44.276,0.791,46.391,0,49.039,0
			c0.907,0,1.718,0.058,2.429,0.177c0.712,0.119,1.402,0.296,2.075,0.534v2.725c-0.87-0.275-1.641-0.474-2.312-0.592
			c-0.672-0.119-1.403-0.177-2.192-0.177c-4.07,0-6.105,2.548-6.105,7.645v2.903h10.55v2.667h-10.55v27.559H40.03V15.882z"/>
		<path class="st0" d="M60.783,15.882h-4.385v-2.667h4.385v-2.962c0-3.476,0.89-6.105,2.667-7.882C65.03,0.791,67.145,0,69.792,0
			c0.908,0,1.719,0.058,2.43,0.177c0.711,0.119,1.402,0.296,2.074,0.534v2.725c-0.87-0.275-1.641-0.474-2.311-0.592
			c-0.672-0.119-1.402-0.177-2.192-0.177c-4.07,0-6.104,2.548-6.104,7.645v2.903h10.549v2.667H63.688v27.559h-2.904V15.882z
			 M79.468,1.362h3.615v3.972h-3.615V1.362z M79.823,13.215h2.904v30.226h-2.904V13.215z"/>
		<path class="st0" d="M106.04,44.152c-2.174,0-4.198-0.425-6.074-1.275c-1.877-0.849-3.504-1.986-4.883-3.407
			c-1.377-1.423-2.454-3.082-3.229-4.979c-0.775-1.896-1.163-3.912-1.163-6.046v-0.118c0-2.133,0.388-4.147,1.163-6.045
			c0.775-1.896,1.853-3.574,3.229-5.037c1.379-1.461,3.006-2.618,4.883-3.466c1.876-0.85,3.9-1.276,6.074-1.276
			c1.423,0,2.716,0.152,3.882,0.456c1.165,0.302,2.242,0.716,3.23,1.241c0.986,0.524,1.886,1.124,2.697,1.798
			c0.808,0.675,1.569,1.386,2.278,2.136l-2.071,2.134c-1.305-1.343-2.747-2.509-4.327-3.497c-1.58-0.988-3.496-1.482-5.749-1.482
			c-1.739,0-3.348,0.334-4.83,1.002c-1.482,0.67-2.766,1.584-3.852,2.744c-1.088,1.16-1.946,2.527-2.578,4.101
			c-0.633,1.573-0.948,3.264-0.948,5.072v0.118c0,1.81,0.326,3.511,0.978,5.103c0.652,1.594,1.541,2.981,2.667,4.16
			c1.126,1.181,2.439,2.105,3.941,2.773c1.501,0.668,3.121,1.003,4.859,1.003c2.134,0,4.039-0.483,5.72-1.452
			c1.679-0.968,3.149-2.163,4.415-3.586l2.014,1.777c-1.54,1.739-3.288,3.181-5.243,4.326
			C111.167,43.578,108.806,44.152,106.04,44.152z"/>
		<path class="st0" d="M137.98,44.152c-1.98,0-3.871-0.376-5.672-1.126c-1.803-0.75-3.388-1.817-4.754-3.2
			c-1.367-1.383-2.445-3.042-3.237-4.979c-0.792-1.935-1.188-4.088-1.188-6.459v-0.12c0-2.171,0.364-4.216,1.096-6.133
			c0.73-1.916,1.737-3.586,3.023-5.009c1.282-1.422,2.795-2.548,4.533-3.377c1.739-0.831,3.635-1.246,5.689-1.246
			c2.134,0,4.05,0.406,5.749,1.215c1.698,0.811,3.15,1.927,4.355,3.35c1.205,1.422,2.134,3.092,2.786,5.006
			c0.652,1.918,0.978,4.001,0.978,6.253c0,0.277,0,0.485,0,0.622c0,0.14-0.02,0.325-0.06,0.564h-25.068
			c0.118,1.886,0.535,3.557,1.248,5.011c0.712,1.456,1.604,2.694,2.673,3.716c1.069,1.022,2.289,1.799,3.656,2.33
			c1.366,0.53,2.802,0.795,4.307,0.795c2.377,0,4.387-0.453,6.031-1.364c1.645-0.908,3.102-2.034,4.368-3.377l2.016,1.777
			c-1.541,1.659-3.293,3.034-5.254,4.119C143.298,43.608,140.871,44.152,137.98,44.152z M148.258,26.905
			c-0.119-1.541-0.427-3.012-0.921-4.414c-0.496-1.402-1.189-2.647-2.08-3.734c-0.891-1.085-1.991-1.956-3.298-2.606
			c-1.309-0.652-2.833-0.979-4.576-0.979c-1.506,0-2.911,0.296-4.219,0.89c-1.307,0.593-2.446,1.413-3.417,2.459
			c-0.971,1.047-1.774,2.291-2.407,3.733c-0.634,1.442-1.01,2.993-1.128,4.652H148.258z"/>
		<path class="st0" d="M157.325,11.378h11.319v4.267c0.553-0.671,1.144-1.304,1.773-1.896c0.631-0.592,1.33-1.115,2.1-1.571
			c0.77-0.453,1.635-0.82,2.603-1.096c0.964-0.276,2.037-0.415,3.22-0.415c1.893,0,3.694,0.385,5.409,1.156
			c1.716,0.769,3.224,1.867,4.523,3.289c1.3,1.421,2.336,3.162,3.104,5.214c0.769,2.056,1.152,4.367,1.152,6.935v0.118
			c0,2.607-0.384,4.949-1.152,7.023c-0.768,2.074-1.793,3.833-3.075,5.275c-1.28,1.443-2.778,2.548-4.492,3.319
			c-1.715,0.769-3.519,1.155-5.409,1.155c-1.223,0-2.315-0.129-3.279-0.386c-0.968-0.257-1.844-0.592-2.632-1.007
			c-0.789-0.416-1.498-0.908-2.129-1.481c-0.631-0.572-1.202-1.155-1.715-1.749v13.394h-11.319V11.378z M174.897,34.728
			c1.848,0,3.403-0.67,4.66-2.014c1.259-1.343,1.889-3.101,1.889-5.275V27.32c0-2.133-0.63-3.871-1.889-5.214
			c-1.257-1.343-2.812-2.016-4.66-2.016c-0.904,0-1.75,0.178-2.536,0.533c-0.789,0.357-1.477,0.86-2.065,1.512
			c-0.59,0.651-1.053,1.413-1.387,2.281c-0.334,0.871-0.501,1.837-0.501,2.903v0.119c0,1.067,0.167,2.044,0.501,2.934
			c0.334,0.89,0.797,1.659,1.387,2.311c0.589,0.652,1.276,1.156,2.065,1.511C173.147,34.551,173.993,34.728,174.897,34.728z"/>
		<path class="st0" d="M212.264,44.211c-2.567,0-4.929-0.436-7.082-1.304c-2.153-0.869-4.02-2.064-5.6-3.586
			c-1.582-1.521-2.807-3.289-3.675-5.304c-0.868-2.015-1.305-4.168-1.305-6.459v-0.12c0-2.29,0.446-4.454,1.333-6.489
			c0.89-2.034,2.125-3.812,3.704-5.334c1.582-1.521,3.458-2.727,5.631-3.615c2.173-0.889,4.544-1.334,7.111-1.334
			c2.568,0,4.93,0.445,7.083,1.334c2.153,0.888,4.02,2.084,5.602,3.584c1.58,1.502,2.805,3.26,3.673,5.275
			c0.868,2.015,1.305,4.168,1.305,6.459v0.119c0,2.293-0.443,4.456-1.333,6.49c-0.891,2.035-2.125,3.813-3.704,5.334
			c-1.582,1.521-3.458,2.727-5.631,3.615C217.203,43.766,214.832,44.211,212.264,44.211z M212.382,34.61
			c1.027,0,1.956-0.186,2.786-0.558c0.829-0.373,1.531-0.882,2.104-1.528c0.572-0.646,1.016-1.401,1.334-2.263
			c0.315-0.862,0.473-1.763,0.473-2.705v-0.117c0-0.98-0.169-1.9-0.504-2.762c-0.335-0.862-0.811-1.617-1.421-2.263
			c-0.614-0.646-1.333-1.165-2.163-1.558c-0.829-0.392-1.741-0.587-2.728-0.587c-1.027,0-1.955,0.185-2.785,0.557
			c-0.829,0.374-1.531,0.882-2.103,1.529c-0.574,0.646-1.018,1.401-1.334,2.265c-0.318,0.861-0.475,1.763-0.475,2.703v0.117
			c0,0.981,0.169,1.902,0.504,2.763c0.335,0.863,0.811,1.617,1.423,2.263c0.612,0.646,1.334,1.166,2.163,1.557
			C210.487,34.415,211.395,34.61,212.382,34.61z"/>
		<path class="st0" d="M229.053,11.378h11.023l4.208,16.12l4.919-16.239h9.304l4.98,16.357l4.326-16.238h10.844l-9.897,32.299
			h-9.718l-5.217-16.653l-5.334,16.653h-9.66L229.053,11.378z"/>
		<path class="st0" d="M294.855,44.211c-2.529,0-4.84-0.407-6.933-1.214c-2.096-0.811-3.904-1.937-5.424-3.378
			c-1.522-1.442-2.708-3.19-3.557-5.245c-0.849-2.055-1.274-4.326-1.274-6.815v-0.12c0-2.331,0.396-4.513,1.184-6.548
			c0.791-2.035,1.908-3.812,3.35-5.334c1.442-1.521,3.15-2.715,5.127-3.586c1.976-0.868,4.148-1.304,6.518-1.304
			c2.767,0,5.166,0.474,7.201,1.422c2.035,0.949,3.714,2.223,5.037,3.823c1.324,1.6,2.312,3.457,2.964,5.571
			c0.651,2.114,0.977,4.356,0.977,6.727c0,0.356,0,0.731,0,1.127s-0.02,0.791-0.058,1.185h-21.455
			c0.434,1.779,1.254,3.103,2.46,3.971c1.205,0.869,2.695,1.305,4.476,1.305c1.343,0,2.578-0.258,3.704-0.772
			c1.126-0.512,2.26-1.342,3.407-2.488l6.222,5.156c-1.541,1.976-3.446,3.557-5.718,4.741
			C300.79,43.619,298.056,44.211,294.855,44.211z M299.478,24.772c-0.197-1.778-0.791-3.189-1.777-4.237
			c-0.988-1.047-2.252-1.571-3.793-1.571c-1.503,0-2.728,0.524-3.675,1.571c-0.948,1.048-1.58,2.458-1.896,4.237H299.478z"/>
		<path class="st0" d="M313.345,11.378h11.319v6.459c0.909-2.173,2.153-3.912,3.733-5.215c1.582-1.304,3.714-1.897,6.402-1.779
			v11.854h-0.95c-2.961,0-5.235,0.869-6.814,2.608c-1.58,1.739-2.371,4.465-2.371,8.177v9.958h-11.319V11.378z"/>
	</g>
</g>
</svg>