<!-- Generator: Adobe Illustrator 19.2.1, SVG Export Plug-In  -->
<svg version="1.1"
	 xmlns="http://www.w3.org/2000/svg" xmlns:xlink="http://www.w3.org/1999/xlink" xmlns:a="http://ns.adobe.com/AdobeSVGViewerExtensions/3.0/"
	 x="0px" y="0px" width="334.7px" height="53px" viewBox="0 0 334.7 53" style="enable-background:new 0 0 334.7 53;"
	 xml:space="preserve">
<style type="text/css">
	.st0{fill:#828282;}
	.st1{fill:#EA2557;}
</style>
<defs>
</defs>
<path class="st0" d="M15.5,44.2c-2.3,0-4.3-0.4-6.2-1.3c-1.9-0.8-3.5-2-4.9-3.4s-2.5-3.1-3.2-5c-0.8-1.9-1.2-3.9-1.2-6v-0.1
	c0-2.1,0.4-4.1,1.2-6s1.9-3.6,3.3-5c1.4-1.5,3.1-2.6,4.9-3.5c1.9-0.9,4-1.3,6.2-1.3c2.3,0,4.3,0.4,6.2,1.3c1.9,0.8,3.5,2,4.9,3.4
	s2.5,3.1,3.2,5c0.8,1.9,1.2,3.9,1.2,6v0.1c0,2.1-0.4,4.1-1.2,6c-0.8,1.9-1.9,3.6-3.3,5c-1.4,1.5-3.1,2.6-4.9,3.5
	C19.8,43.7,17.7,44.2,15.5,44.2z M15.6,41.4c1.8,0,3.4-0.3,5-1c1.5-0.7,2.8-1.6,3.9-2.8s1.9-2.5,2.6-4.1c0.6-1.6,0.9-3.2,0.9-5v-0.1
	c0-1.8-0.3-3.5-1-5.1c-0.6-1.6-1.5-3-2.6-4.2s-2.5-2.1-4-2.8c-1.5-0.7-3.2-1-4.9-1c-1.8,0-3.4,0.3-5,1C9,17,7.7,17.9,6.6,19.1
	S4.7,21.6,4,23.2c-0.6,1.6-0.9,3.2-0.9,5v0.1c0,1.8,0.3,3.5,1,5.1c0.6,1.6,1.5,3,2.6,4.2s2.5,2.1,4,2.8S13.8,41.4,15.6,41.4z"/>
<path class="st0" d="M40,15.9h-4.4v-2.7H40v-3c0-3.5,0.9-6.1,2.7-7.9C44.3,0.8,46.4,0,49,0c0.9,0,1.7,0.1,2.4,0.2s1.4,0.3,2.1,0.5
	v2.7c-0.9-0.3-1.6-0.5-2.3-0.6S49.8,2.6,49,2.6c-4.1,0-6.1,2.5-6.1,7.6v2.9h10.5v2.7H42.9v27.6H40V15.9z"/>
<path class="st0" d="M60.8,15.9h-4.4v-2.7h4.4v-3c0-3.5,0.9-6.1,2.7-7.9C65,0.8,67.1,0,69.8,0c0.9,0,1.7,0.1,2.4,0.2
	s1.4,0.3,2.1,0.5v2.7C73.4,3.2,72.7,3,72,2.8c-0.7-0.1-1.4-0.2-2.2-0.2c-4.1,0-6.1,2.5-6.1,7.6v2.9h10.5v2.7H63.7v27.6h-2.9V15.9
	L60.8,15.9z M79.5,1.4h3.6v4h-3.6V1.4z M79.8,13.2h2.9v30.2h-2.9V13.2z"/>
<path class="st0" d="M106,44.2c-2.2,0-4.2-0.4-6.1-1.3c-1.9-0.8-3.5-2-4.9-3.4s-2.5-3.1-3.2-5c-0.8-1.9-1.2-3.9-1.2-6v-0.1
	c0-2.1,0.4-4.1,1.2-6c0.8-1.9,1.9-3.6,3.2-5c1.4-1.5,3-2.6,4.9-3.5s3.9-1.3,6.1-1.3c1.4,0,2.7,0.2,3.9,0.5c1.2,0.3,2.2,0.7,3.2,1.2
	s1.9,1.1,2.7,1.8c0.8,0.7,1.6,1.4,2.3,2.1l-2.1,2.1c-1.3-1.3-2.7-2.5-4.3-3.5s-3.5-1.5-5.7-1.5c-1.7,0-3.3,0.3-4.8,1
	c-1.5,0.7-2.8,1.6-3.9,2.7c-1.1,1.2-1.9,2.5-2.6,4.1c-0.6,1.6-0.9,3.3-0.9,5.1v0.1c0,1.8,0.3,3.5,1,5.1c0.7,1.6,1.5,3,2.7,4.2
	c1.1,1.2,2.4,2.1,3.9,2.8s3.1,1,4.9,1c2.1,0,4-0.5,5.7-1.5s3.1-2.2,4.4-3.6l2,1.8c-1.5,1.7-3.3,3.2-5.2,4.3
	C111.2,43.6,108.8,44.2,106,44.2z"/>
<path class="st0" d="M138,44.2c-2,0-3.9-0.4-5.7-1.1c-1.8-0.8-3.4-1.8-4.8-3.2c-1.4-1.4-2.4-3-3.2-5c-0.8-1.9-1.2-4.1-1.2-6.5v-0.1
	c0-2.2,0.4-4.2,1.1-6.1c0.7-1.9,1.7-3.6,3-5c1.3-1.4,2.8-2.5,4.5-3.4c1.7-0.8,3.6-1.2,5.7-1.2c2.1,0,4.1,0.4,5.7,1.2
	c1.7,0.8,3.1,1.9,4.4,3.3c1.2,1.4,2.1,3.1,2.8,5s1,4,1,6.3c0,0.3,0,0.5,0,0.6s0,0.3-0.1,0.6h-25.1c0.1,1.9,0.5,3.6,1.2,5
	c0.7,1.5,1.6,2.7,2.7,3.7s2.3,1.8,3.7,2.3s2.8,0.8,4.3,0.8c2.4,0,4.4-0.5,6-1.4s3.1-2,4.4-3.4l2,1.8c-1.5,1.7-3.3,3-5.3,4.1
	C143.3,43.6,140.9,44.2,138,44.2z M148.3,26.9c-0.1-1.5-0.4-3-0.9-4.4s-1.2-2.6-2.1-3.7c-0.9-1.1-2-2-3.3-2.6c-1.3-0.7-2.8-1-4.6-1
	c-1.5,0-2.9,0.3-4.2,0.9c-1.3,0.6-2.4,1.4-3.4,2.5c-1,1-1.8,2.3-2.4,3.7c-0.6,1.4-1,3-1.1,4.7L148.3,26.9L148.3,26.9z"/>
<g>
	<polygon class="st1" points="267.8,11.5 263.5,27.7 258.5,11.3 249.2,11.3 244.3,27.5 240.1,11.4 229.1,11.4 238.8,43.7 
		248.5,43.7 253.8,27 259,43.8 268.7,43.8 278.6,11.5 	"/>
	<path class="st1" d="M225,15.6c-1.6-1.5-3.4-2.7-5.6-3.6c-2.2-0.9-4.5-1.3-7.1-1.3c-2.6,0-4.9,0.4-7.1,1.3c-2.1,0.9-4,2.1-5.6,3.6
		c-1.6,1.5-2.8,3.3-3.7,5.3c-0.9,2-1.3,4.2-1.3,6.5v0.1c0,2.3,0.4,4.5,1.3,6.5c0.9,2,2.1,3.8,3.7,5.3c1.6,1.5,3.4,2.7,5.6,3.6
		s4.5,1.3,7.1,1.3c2.5,0,4.9-0.4,7.1-1.3c2.1-0.9,4-2.1,5.6-3.6c1.6-1.5,2.8-3.3,3.7-5.3c0.9-2,1.3-4.2,1.3-6.5v-0.1
		c0-2.3-0.4-4.5-1.3-6.5C227.8,18.9,226.6,17.1,225,15.6z M219.1,27.5c0,0.9-0.2,1.8-0.5,2.7c-0.3,0.9-0.7,1.7-1.3,2.3
		c-0.6,0.6-1.3,1.1-2.1,1.5c-0.8,0.4-1.8,0.6-2.8,0.6s-1.9-0.2-2.7-0.6c-0.9-0.4-1.6-0.9-2.2-1.6s-1.1-1.4-1.4-2.3
		c-0.3-0.9-0.5-1.8-0.5-2.8v-0.1c0-0.9,0.2-1.8,0.5-2.7c0.3-0.9,0.7-1.7,1.3-2.3c0.6-0.6,1.3-1.1,2.1-1.5c0.8-0.4,1.8-0.6,2.8-0.6
		s1.9,0.2,2.7,0.6c0.9,0.4,1.6,1,2.2,1.6c0.6,0.7,1.1,1.4,1.4,2.3c0.3,0.9,0.5,1.8,0.5,2.8V27.5z"/>
	<path class="st1" d="M328.3,12.7c-1.5,1.3-2.8,3-3.7,5.2v-6.5h-11.3h-0.1v32.2h11.3v-10c0-3.7,0.8-6.5,2.4-8.2
		c1.6-1.7,3.8-2.6,6.8-2.6h1V10.9C332,10.8,329.9,11.4,328.3,12.7z"/>
	<path class="st1" d="M188.2,15.2c-1.3-1.4-2.8-2.5-4.5-3.3s-3.5-1.2-5.4-1.2c-1.2,0-2.2,0.1-3.2,0.4s-1.8,0.6-2.6,1.1
		c-0.8,0.5-1.5,1-2.1,1.6c-0.7,0.6-1.2,1.2-1.8,1.9v-4.3h-11.3V53h11.3V39.6c0.5,0.5,1.1,1.1,1.7,1.7c0.6,0.6,1.3,1.1,2.1,1.5
		c0.8,0.4,1.6,0.7,2.6,1c1,0.3,2.1,0.4,3.3,0.4c1.9,0,3.7-0.4,5.4-1.2c1.7-0.8,3.2-1.9,4.5-3.3c1.3-1.5,2.3-3.2,3.1-5.3
		c0.8-2.1,1.2-4.4,1.2-7v-0.1c0-2.5-0.4-4.8-1.2-6.9C190.5,18.4,189.5,16.6,188.2,15.2z M181.5,27.4c0,2.2-0.6,4-1.9,5.3
		c-1.3,1.3-2.9,2-4.7,2c-0.9,0-1.8-0.1-2.5-0.6c-0.8-0.3-1.5-0.8-2.1-1.5c-0.6-0.6-1.1-1.4-1.4-2.3c-0.3-0.9-0.5-1.8-0.5-2.9v-0.1
		c0-1.1,0.2-2,0.5-2.9c0.3-0.9,0.8-1.6,1.4-2.3c0.6-0.6,1.3-1.1,2.1-1.5c0.7-0.3,1.6-0.5,2.5-0.5c1.9,0,3.4,0.7,4.7,2
		s1.9,3.1,1.9,5.2V27.4z"/>
	<path class="st1" d="M306.1,16c-1.3-1.6-3-2.9-5-3.8c-2-0.9-4.4-1.4-7.2-1.4c-2.4,0-4.5,0.4-6.5,1.3c-2,0.9-3.7,2.1-5.1,3.6
		c-1.5,1.5-2.6,3.3-3.4,5.3s-1.2,4.2-1.2,6.5v0.1c0,2.5,0.4,4.8,1.3,6.8c0.9,2,2.1,3.8,3.6,5.2c1.5,1.5,3.3,2.6,5.4,3.4
		c2.1,0.8,4.4,1.2,6.9,1.2c3.2,0,5.9-0.6,8.2-1.7c2.3-1.1,4.2-2.7,5.7-4.7l-6.2-5.2c-1.1,1.2-2.3,2-3.4,2.5
		c-1.1,0.5-2.4,0.8-3.7,0.8c-1.8,0-3.3-0.4-4.5-1.3c-1.2-0.9-2.1-2.2-2.5-4H310c0.1-0.4,0.1-0.8,0.1-1.2s0-0.7,0-1.1
		c0-2.3-0.3-4.6-1-6.7C308.4,19.5,307.4,17.6,306.1,16z M288.3,24.8c0.3-1.7,1-3.2,1.9-4.2c1-1.1,2.2-1.6,3.7-1.6s2.8,0.6,3.8,1.6
		s1.6,2.4,1.8,4.2H288.3z"/>
</g>
</svg>